<!DOCTYPE svg PUBLIC "-//W3C//DTD SVG 1.1//EN" "http://www.w3.org/Graphics/SVG/1.1/DTD/svg11.dtd">
<!-- Uploaded to: SVG Repo, www.svgrepo.com, Transformed by: SVG Repo Mixer Tools -->
<svg height="227px" width="227px" version="1.1" id="Layer_1" xmlns="http://www.w3.org/2000/svg" xmlns:xlink="http://www.w3.org/1999/xlink" viewBox="0 0 509.287 509.287" xml:space="preserve" fill="#000000">
<g id="SVGRepo_bgCarrier" stroke-width="0"/>
<g id="SVGRepo_tracerCarrier" stroke-linecap="round" stroke-linejoin="round" stroke="#CCCCCC" stroke-width="20.37148"/>
<g id="SVGRepo_iconCarrier"> <circle style="fill:#007FFF;" cx="254.644" cy="254.644" r="254.644"/> <path style="fill:#bcaeae;" d="M64.424,167.841c-15.258,0-27.804,12.546-27.804,27.804v117.997 c0,15.258,12.546,27.804,27.804,27.804h86.803V167.841H64.424z"/> <polygon style="fill:#F1F3F7;" points="150.887,341.446 292.281,478.432 292.281,30.856 150.887,167.841 "/> <g> <path style="fill:#FFFFFC;" d="M394.342,417.399c-4.747,0-9.494-1.695-13.224-5.425c-7.121-7.121-7.121-18.988,0-26.448 c34.924-34.924,54.252-81.717,54.252-131.221s-19.327-95.958-54.252-131.221c-7.121-7.121-7.121-18.988,0-26.448 c7.121-7.121,18.988-7.121,26.448,0c42.045,42.723,65.102,98.67,65.102,158.008s-23.057,115.285-65.102,157.33 C403.836,415.703,399.089,417.399,394.342,417.399z"/> <path style="fill:#FFFFFC;" d="M339.412,362.808c-4.747,0-9.494-1.695-13.224-5.425c-7.121-7.121-7.121-18.988,0-26.448 c42.045-42.045,42.045-110.538,0-152.583c-7.121-7.121-7.121-18.988,0-26.448c7.121-7.121,18.988-7.121,26.448,0 c56.625,56.625,56.625,148.514,0,205.139C348.906,360.774,344.159,362.808,339.412,362.808z"/> </g> </g>
</svg>